After spending the 1930s as the Third Reich's principal cinematic chronicler, Leni Riefenstahl returned to fictional films with Tiefland. According to Riefenstahl, she had refused to make any more propaganda pictures--"for good reasons," she explained enigmatically--choosing instead to direct a period romance, based on an old Spanish play and opera by Eugen d'Albert. Riefenstahl cast herself as the central character, Marta, a Spanish dancer who becomes the romantic bone of contention between humble shepherd Franz Eichberger and imperious marquis Bernhard Minetti. While the material seems to cry out for music, Riefenstahl plays the story straight, though much of the acting can certainly be described as operatic. In one scene, the director utilized a band of gypsies as atmosphere extras; as soon as their scenes were completed, the gypsies were returned to their Nazi concentration camp--where most of them were doomed to extermination. Personally financed by Riefenstahl, Tiefland  was filmed between 1942 and 1944, which explains the presence of Maria Koppenhofer (who died in 1948). Final editing was not completed until around 1953, at which time Riefenstahl personally accompanied her print of the film to selected showings in Germany and Austria. 


 
http://www.imdb.com/title/tt0046431/



Subtitles:


 
http://www.opensubtitles.org/en/search/imdbid-46431/sublanguageid-all



Director:
Leni Riefenstahl




	Bernhard Minetti ... 	Don Sebastian, Marquès von Roccabruna

	Leni Riefenstahl... 	Martha, eine spanische Betteltänzerin
	Aribert Wäscher	... 	Camillo, Verwalter des Don Sebastian
	Karl Skraup	... 	Bürgermeister


Video
      Format : MPEG-4 Visual
      Format settings, BVOP : Yes
      Format settings, QPel : No
      Format settings, GMC : No warppoints
      Format settings, Matrix : Default (H.263)
      Muxing mode : Packed bitstream
      Codec ID : DX50
      Codec ID/Hint : DivX 5
      Duration : 1h 34mn
      Bit rate : 1 321 Kbps
      Width : 640 pixels
      Height : 480 pixels
      Display aspect ratio : 4/3
      Frame rate : 30.000 fps
      Resolution : 24 bits
      Colorimetry : 4:2:0
      Scan type : Progressive
      Bits/(Pixel*Frame) : 0.143
      Stream size : 890 MiB (90%)
      Writing library : DivX 6.8.5
   Audio
      Format : MPEG Audio
      Format version : Version 1
      Format profile : Layer 3
      Codec ID : 55
      Codec ID/Hint : MP3
      Duration : 1h 34mn
      Bit rate mode : Constant
      Bit rate : 128 Kbps
      Channel(s) : 2 channels
      Sampling rate : 44.1 KHz
      Resolution : 16 bits
      Stream size : 86.2 MiB (9%)
      Alignment : Split accross interleaves
      Interleave, duration : 33 ms (1.00 video frame)
      Interleave, preload duration : 500 ms
      Writing library : LAME3.98.2


Please seed at least as much as you D/L.
=======================================
Thanks 

John